# xmcd
#
# Track frame offsets: 
#        150
#        18124
#        32116
#        46024
#        76625
#        107187
#        125029
#        154257
#        183285
#        201920
#
# Disc length: 2983 seconds
#
# Revision: 1
# Processed by: cddbd v1.5.2PL0 Copyright (c) Steve Scherf et al.
# Submitted via: ExactAudioCopy v0.99pb5
#
DISCID=760ba50a
DTITLE=Head for the Hills - Head for the Hills
DYEAR=2009
DGENRE=Bluegrass
TTITLE0=One Foot in the Grave
TTITLE1=Solar Bowling Shoes
TTITLE2=Time to Spare
TTITLE3=Nooks and Crannies
TTITLE4=Cold Walls
TTITLE5=A Poor Boy's Melody
TTITLE6=My Angelie
TTITLE7=Chupchik
TTITLE8=If 'n When
TTITLE9=Unchain My Heart
EXTD=
EXTT0=
EXTT1=
EXTT2=
EXTT3=
EXTT4=
EXTT5=
EXTT6=
EXTT7=
EXTT8=
EXTT9=
PLAYORDER=
